<?xml version="1.0" standalone="no"?>
<!DOCTYPE svg PUBLIC "-//W3C//DTD SVG 20010904//EN"
 "http://www.w3.org/TR/2001/REC-SVG-20010904/DTD/svg10.dtd">
<svg version="1.0" xmlns="http://www.w3.org/2000/svg"
 width="820.000000pt" height="860.000000pt" viewBox="0 0 820.000000 860.000000"
 preserveAspectRatio="xMidYMid meet">

<g transform="translate(0.000000,860.000000) scale(0.100000,-0.100000)"
fill="#000000" stroke="none">
<path d="M1345 8164 c-95 -17 -116 -23 -260 -76 -137 -51 -226 -95 -335 -167
-307 -201 -526 -494 -606 -809 l-24 -95 2 -656 3 -656 1240 -3 c682 -1 1255 0
1274 3 25 5 56 27 105 74 262 252 659 458 1048 545 299 67 664 61 977 -15 355
-86 699 -268 961 -508 25 -23 68 -54 95 -69 l50 -27 1087 -3 c779 -2 1094 0
1109 8 20 11 20 13 17 708 l-4 697 -26 100 c-93 352 -246 594 -486 765 -138
99 -259 153 -410 185 -65 13 -398 15 -2905 14 -2409 -1 -2844 -3 -2912 -15z
m5626 -490 c49 -23 77 -55 112 -131 22 -48 22 -49 20 -608 -3 -627 -1 -614
-73 -679 -83 -74 -50 -71 -681 -71 l-565 0 -59 30 c-52 27 -63 38 -90 90 l-30
59 0 585 c0 551 1 588 18 620 38 69 101 109 192 122 28 4 289 6 580 5 518 -1
531 -1 576 -22z"/>
<path d="M3955 5900 c-495 -86 -911 -358 -1192 -780 -191 -286 -287 -613 -287
-975 -1 -181 13 -291 54 -451 189 -722 782 -1235 1525 -1319 164 -19 249 -19
400 0 224 27 382 74 580 170 602 293 961 850 991 1539 13 291 -37 548 -157
804 -230 492 -660 852 -1174 981 -214 54 -534 67 -740 31z"/>
<path d="M121 5172 c-7 -12 -8 -672 -5 -1893 5 -1614 8 -1885 21 -1952 46
-241 162 -447 367 -653 219 -219 482 -362 801 -436 l90 -22 2730 -5 c1502 -3
2782 -3 2845 1 320 21 555 128 763 347 156 164 261 372 329 651 l23 95 0 1940
0 1940 -919 3 c-506 1 -923 -1 -927 -5 -4 -5 4 -30 17 -58 158 -324 248 -736
230 -1060 -36 -648 -307 -1210 -776 -1609 -375 -318 -822 -503 -1307 -538
-796 -59 -1593 341 -2036 1022 -302 464 -417 1098 -302 1655 35 168 112 390
186 536 l29 59 -1075 0 c-1033 0 -1075 -1 -1084 -18z"/>
</g>
</svg>
