<?xml version="1.0" standalone="no"?>
<!DOCTYPE svg PUBLIC "-//W3C//DTD SVG 20010904//EN"
 "http://www.w3.org/TR/2001/REC-SVG-20010904/DTD/svg10.dtd">
<svg version="1.0" xmlns="http://www.w3.org/2000/svg"
 width="840.000000pt" height="878.000000pt" viewBox="0 0 840.000000 878.000000"
 preserveAspectRatio="xMidYMid meet">

<g transform="translate(0.000000,878.000000) scale(0.100000,-0.100000)"
fill="#000000" stroke="none">
<path d="M644 8360 c-217 -57 -371 -208 -424 -416 -20 -76 -20 -123 -20 -3554
0 -3431 0 -3478 20 -3554 28 -109 63 -169 151 -258 57 -58 94 -86 149 -112
150 -72 -169 -67 3705 -64 l3490 3 65 23 c184 66 318 199 378 376 l27 81 3
3445 c2 2201 -1 3474 -7 3526 -28 235 -168 410 -392 492 l-74 27 -3500 2
c-3394 2 -3502 1 -3571 -17z m1489 -1096 c195 -43 374 -186 462 -369 50 -105
68 -184 68 -305 0 -90 -5 -118 -32 -201 -76 -235 -254 -402 -495 -465 -39 -10
-99 -16 -170 -15 -92 1 -121 5 -199 31 -50 17 -118 47 -151 68 -63 37 -168
134 -203 187 -141 210 -163 478 -58 699 84 177 273 330 458 370 86 19 234 19
320 0z m3786 -1805 c93 -13 171 -31 260 -61 493 -168 740 -561 812 -1293 8
-81 13 -511 16 -1322 l5 -1203 -596 0 -595 0 -4 1098 c-3 982 -5 1108 -21
1200 -50 302 -174 470 -394 536 -123 36 -333 30 -469 -15 -133 -43 -260 -157
-325 -290 -40 -82 -49 -111 -80 -249 -21 -93 -22 -114 -25 -1187 l-4 -1093
-594 0 -595 0 0 1905 0 1905 570 0 570 0 2 -262 3 -263 57 85 c107 161 290
318 471 404 261 124 561 158 936 105z m-3349 -1974 l0 -1905 -595 0 -595 0 0
1905 0 1905 595 0 595 0 0 -1905z"/>
</g>
</svg>
